# xmcd CD database file
#
# Track frame offsets:
#	150
#	17100
#	43875
#	57375
#	72337
#	101987
#	116562
#	130575
#	154062
#	172950
#
# Disc length: 2694 seconds
#
# Revision: 4
# Processed by: cddbd v1.5.2PL0 Copyright (c) Steve Scherf et al.
# Submitted via: CDex 1.51
#
DISCID=890a840a
DTITLE=Tygers Of Pan Tang - Wild Cat
DYEAR=1980
DGENRE=Hard Rock
TTITLE0=Euthanasia
TTITLE1=Slave To Freedom
TTITLE2=Don't Touch Me There
TTITLE3=Money
TTITLE4=Killers
TTITLE5=Fireclown
TTITLE6=Wild Catz
TTITLE7=Suzie Smiled
TTITLE8=Badger Badger
TTITLE9=Insanity
EXTD=YEAR: 1980
EXTT0=
EXTT1=
EXTT2=
EXTT3=
EXTT4=
EXTT5=
EXTT6=
EXTT7=
EXTT8=
EXTT9=
PLAYORDER=
